<svg width="122" height="121" viewBox="0 0 122 121" fill="none" xmlns="http://www.w3.org/2000/svg">
<g clip-path="url(#clip0_99_292)">
<path d="M111.074 115.868C98.9542 111.572 87.5549 104.786 77.1136 95.6756C82.2309 95.716 86.955 95.9882 88.4221 96.5478C88.8811 96.7227 89.3813 96.7597 89.861 96.6541C90.3408 96.5486 90.7792 96.3052 91.1225 95.9539C91.4658 95.6026 91.699 95.1586 91.7934 94.6765C91.8878 94.1945 91.8393 93.6954 91.6538 93.2405C86.6424 80.9993 66.2993 79.1742 61.0761 78.902C33.5385 44.906 23.6619 2.39471 23.5661 1.96617C23.4627 1.50858 23.2336 1.08893 22.9046 0.754442C22.5757 0.419953 22.1599 0.183895 21.7041 0.0728259C21.2483 -0.0382427 20.7706 -0.0199146 20.3246 0.125748C19.8787 0.271411 19.4822 0.538629 19.1799 0.897337C8.06299 14.0813 1.65503 36.92 12.4089 58.2261C23.6014 80.4044 52.6112 83.4345 58.6107 83.8327C59.7653 85.1385 62.2307 87.9064 64.8271 90.7045H28.1591C27.6628 90.7022 27.1769 90.8467 26.7626 91.1198C26.3482 91.3929 26.0239 91.7825 25.8305 92.2395C25.637 92.6965 25.583 93.2005 25.6753 93.6881C25.7676 94.1758 26.002 94.6252 26.3491 94.9799C29.2027 97.9343 34.3654 98.383 42.916 99.1241C47.4283 99.5174 54.3505 103.707 61.6761 108.144C66.2589 110.917 71.0032 113.785 75.7524 116.115C84.1972 120.249 95.8939 121.01 103.325 121.01C107.364 121.01 110.147 120.783 110.454 120.758C111.029 120.709 111.569 120.464 111.985 120.065C112.402 119.665 112.668 119.135 112.741 118.563C112.813 117.991 112.687 117.411 112.384 116.921C112.081 116.43 111.619 116.058 111.074 115.868Z" fill="#3A3A3A"/>
</g>
<defs>
<clipPath id="clip0_99_292">
<rect width="121" height="121" fill="white" transform="translate(0.576172)"/>
</clipPath>
</defs>
</svg>
