<svg width="122" height="121" viewBox="0 0 122 121" fill="none" xmlns="http://www.w3.org/2000/svg">
<g clip-path="url(#clip0_99_290)">
<path d="M48.1918 82.0027C39.7621 83.8731 31.1207 82.0027 25.0152 76.3963C24.7984 75.7712 25.2219 75.5645 25.6404 75.5645C28.8227 74.5676 31.8667 73.1735 34.7003 71.4152C44.6072 66.0156 54.2972 60.4092 64.4159 55.6348H64.6226C64.1991 60.6159 64.4159 65.3904 66.3115 69.7514C66.5233 70.79 67.577 71.6219 66.9417 72.6605C60.8262 75.7712 54.9274 79.9255 48.1918 82.0027ZM76.4201 81.3775C83.3776 85.5268 93.6979 86.3587 101.069 82.6228L106.761 79.5121L107.603 79.9255C112.231 82.4161 116.864 84.7 121.084 87.604C119.819 89.8929 117.288 91.3398 115.604 93.0036C103.176 102.139 84.6329 103.591 70.728 96.9462C66.3014 94.4556 61.8749 91.3398 58.0835 87.3973C58.0835 86.9838 58.0835 86.5654 58.507 86.3587C63.1403 83.8681 67.5669 81.1658 72.2002 79.0936C73.8942 79.3054 74.9429 80.9591 76.4201 81.3775ZM27.7478 66.2223C19.5299 70.1648 8.15086 68.9246 1.20345 63.525C0.991696 63.1116 0.573238 62.8998 0.779946 62.4864C19.1165 52.3123 37.4429 42.1382 55.9862 32.1759C62.7219 29.0652 68.8374 24.6991 76.0016 22.4203C92.0139 17.0206 110.345 21.3817 121.719 33.8396V34.4648C117.081 37.3688 112.231 39.6577 107.603 42.1433C105.914 41.7298 104.648 40.2728 102.964 39.446C95.8002 35.0849 84.8447 34.8782 77.4687 39.0326C60.982 48.2538 44.4076 57.3175 27.7478 66.2223Z" fill="#3A3A3A"/>
</g>
<defs>
<clipPath id="clip0_99_290">
<rect width="121" height="121" fill="white" transform="translate(0.432129)"/>
</clipPath>
</defs>
</svg>
