<svg width="182" height="19" viewBox="0 0 182 19" fill="none" xmlns="http://www.w3.org/2000/svg">
<path d="M16.1648 6.86932H11.9034C11.8466 6.43182 11.7301 6.03693 11.554 5.68466C11.3778 5.33239 11.1449 5.03125 10.8551 4.78125C10.5653 4.53125 10.2216 4.34091 9.82386 4.21023C9.43182 4.07386 8.99716 4.00568 8.51989 4.00568C7.6733 4.00568 6.94318 4.21307 6.32955 4.62784C5.72159 5.04261 5.25284 5.64205 4.9233 6.42614C4.59943 7.21023 4.4375 8.15909 4.4375 9.27273C4.4375 10.4318 4.60227 11.4034 4.93182 12.1875C5.26705 12.9659 5.7358 13.554 6.33807 13.9517C6.94602 14.3437 7.66477 14.5398 8.49432 14.5398C8.96023 14.5398 9.38352 14.4801 9.7642 14.3608C10.1506 14.2415 10.4886 14.0682 10.7784 13.8409C11.0739 13.608 11.3153 13.3267 11.5028 12.9972C11.696 12.6619 11.8295 12.2841 11.9034 11.8636L16.1648 11.8892C16.0909 12.6619 15.8665 13.4233 15.4915 14.1733C15.1222 14.9233 14.6136 15.608 13.9659 16.2273C13.3182 16.8409 12.5284 17.3295 11.5966 17.6932C10.6705 18.0568 9.60795 18.2386 8.40909 18.2386C6.82955 18.2386 5.41477 17.892 4.16477 17.1989C2.92045 16.5 1.9375 15.483 1.21591 14.1477C0.494318 12.8125 0.133523 11.1875 0.133523 9.27273C0.133523 7.35227 0.5 5.72443 1.23295 4.3892C1.96591 3.05398 2.95739 2.03977 4.20739 1.34659C5.45739 0.653409 6.85795 0.306818 8.40909 0.306818C9.46591 0.306818 10.4432 0.454545 11.3409 0.75C12.2386 1.03977 13.0284 1.46591 13.7102 2.02841C14.392 2.58523 14.946 3.26989 15.3722 4.08239C15.7983 4.89489 16.0625 5.82386 16.1648 6.86932ZM35.0533 9.27273C35.0533 11.1932 34.6839 12.821 33.9453 14.1562C33.2067 15.4915 32.2067 16.5057 30.9453 17.1989C29.6896 17.892 28.2805 18.2386 26.718 18.2386C25.1499 18.2386 23.7379 17.8892 22.4822 17.1903C21.2266 16.4915 20.2294 15.4773 19.4908 14.1477C18.7578 12.8125 18.3913 11.1875 18.3913 9.27273C18.3913 7.35227 18.7578 5.72443 19.4908 4.3892C20.2294 3.05398 21.2266 2.03977 22.4822 1.34659C23.7379 0.653409 25.1499 0.306818 26.718 0.306818C28.2805 0.306818 29.6896 0.653409 30.9453 1.34659C32.2067 2.03977 33.2067 3.05398 33.9453 4.3892C34.6839 5.72443 35.0533 7.35227 35.0533 9.27273ZM30.7408 9.27273C30.7408 8.13636 30.5788 7.17614 30.255 6.39205C29.9368 5.60795 29.4766 5.0142 28.8743 4.61079C28.2777 4.20739 27.5589 4.00568 26.718 4.00568C25.8828 4.00568 25.1641 4.20739 24.5618 4.61079C23.9595 5.0142 23.4964 5.60795 23.1726 6.39205C22.8544 7.17614 22.6953 8.13636 22.6953 9.27273C22.6953 10.4091 22.8544 11.3693 23.1726 12.1534C23.4964 12.9375 23.9595 13.5312 24.5618 13.9347C25.1641 14.3381 25.8828 14.5398 26.718 14.5398C27.5589 14.5398 28.2777 14.3381 28.8743 13.9347C29.4766 13.5312 29.9368 12.9375 30.255 12.1534C30.5788 11.3693 30.7408 10.4091 30.7408 9.27273ZM52.3714 0.545454V18H48.7919L41.8459 7.92614H41.7351V18H37.5163V0.545454H41.147L48.0163 10.6023H48.1612V0.545454H52.3714ZM64.4588 5.77841C64.402 5.15341 64.1491 4.66761 63.7003 4.32102C63.2571 3.96875 62.6236 3.79261 61.7997 3.79261C61.2543 3.79261 60.7997 3.86364 60.4361 4.00568C60.0724 4.14773 59.7997 4.34375 59.6179 4.59375C59.4361 4.83807 59.3423 5.11932 59.3366 5.4375C59.3253 5.69886 59.3764 5.92898 59.4901 6.12784C59.6094 6.3267 59.7798 6.50284 60.0014 6.65625C60.2287 6.80398 60.5014 6.93466 60.8196 7.0483C61.1378 7.16193 61.4957 7.26136 61.8935 7.34659L63.3935 7.6875C64.2571 7.875 65.0185 8.125 65.6776 8.4375C66.3423 8.75 66.8991 9.12216 67.348 9.55398C67.8026 9.9858 68.1463 10.483 68.3793 11.0455C68.6122 11.608 68.7315 12.2386 68.7372 12.9375C68.7315 14.0398 68.4531 14.9858 67.902 15.7756C67.3509 16.5653 66.5582 17.1705 65.5241 17.5909C64.4957 18.0114 63.2543 18.2216 61.7997 18.2216C60.3395 18.2216 59.0668 18.0028 57.9815 17.5653C56.8963 17.1278 56.0526 16.4631 55.4503 15.571C54.848 14.679 54.5384 13.5511 54.5213 12.1875H58.5611C58.5952 12.75 58.7457 13.2188 59.0128 13.5938C59.2798 13.9688 59.6463 14.2528 60.1122 14.446C60.5838 14.6392 61.1293 14.7358 61.7486 14.7358C62.3168 14.7358 62.7997 14.6591 63.1974 14.5057C63.6009 14.3523 63.9105 14.1392 64.1264 13.8665C64.3423 13.5937 64.4531 13.2812 64.4588 12.929C64.4531 12.5994 64.3509 12.3182 64.152 12.0852C63.9531 11.8466 63.6463 11.642 63.2315 11.4716C62.8224 11.2955 62.2997 11.1335 61.6634 10.9858L59.8395 10.5597C58.3281 10.2131 57.1378 9.65341 56.2685 8.88068C55.3991 8.10227 54.9673 7.05114 54.973 5.72727C54.9673 4.64773 55.2571 3.7017 55.8423 2.8892C56.4276 2.0767 57.2372 1.44318 58.2713 0.988636C59.3054 0.534091 60.4844 0.306818 61.8082 0.306818C63.1605 0.306818 64.3338 0.536931 65.3281 0.997158C66.3281 1.4517 67.1037 2.09091 67.6548 2.91477C68.206 3.73864 68.4872 4.69318 68.4986 5.77841H64.4588ZM70.2969 3.97159V0.545454H85.0497V3.97159H79.7571V18H75.598V3.97159H70.2969ZM87.1101 18V0.545454H94.3203C95.6271 0.545454 96.755 0.78125 97.7038 1.25284C98.6584 1.71875 99.3942 2.3892 99.9112 3.2642C100.428 4.13352 100.687 5.16477 100.687 6.35795C100.687 7.56818 100.423 8.59659 99.8942 9.44318C99.3658 10.2841 98.6158 10.9261 97.6442 11.3693C96.6726 11.8068 95.522 12.0256 94.1925 12.0256H89.6328V8.7017H93.4084C94.0447 8.7017 94.576 8.61932 95.0021 8.45455C95.4339 8.28409 95.7607 8.02841 95.9822 7.6875C96.2038 7.34091 96.3146 6.89773 96.3146 6.35795C96.3146 5.81818 96.2038 5.37216 95.9822 5.01989C95.7607 4.66193 95.4339 4.39489 95.0021 4.21875C94.5703 4.03693 94.0391 3.94602 93.4084 3.94602H91.3288V18H87.1101ZM96.9368 10.0227L101.283 18H96.6811L92.4197 10.0227H96.9368ZM113.56 0.545454H117.771V11.804C117.771 13.1051 117.461 14.2386 116.842 15.2045C116.222 16.1648 115.359 16.9091 114.251 17.4375C113.143 17.9602 111.856 18.2216 110.39 18.2216C108.907 18.2216 107.612 17.9602 106.504 17.4375C105.396 16.9091 104.535 16.1648 103.921 15.2045C103.308 14.2386 103.001 13.1051 103.001 11.804V0.545454H107.219V11.4375C107.219 12.0398 107.35 12.5767 107.612 13.0483C107.879 13.5199 108.251 13.8892 108.728 14.1562C109.205 14.4233 109.759 14.5568 110.39 14.5568C111.021 14.5568 111.572 14.4233 112.043 14.1562C112.521 13.8892 112.893 13.5199 113.16 13.0483C113.427 12.5767 113.56 12.0398 113.56 11.4375V0.545454ZM136.259 6.86932H131.997C131.94 6.43182 131.824 6.03693 131.648 5.68466C131.472 5.33239 131.239 5.03125 130.949 4.78125C130.659 4.53125 130.315 4.34091 129.918 4.21023C129.526 4.07386 129.091 4.00568 128.614 4.00568C127.767 4.00568 127.037 4.21307 126.423 4.62784C125.815 5.04261 125.347 5.64205 125.017 6.42614C124.693 7.21023 124.531 8.15909 124.531 9.27273C124.531 10.4318 124.696 11.4034 125.026 12.1875C125.361 12.9659 125.83 13.554 126.432 13.9517C127.04 14.3437 127.759 14.5398 128.588 14.5398C129.054 14.5398 129.477 14.4801 129.858 14.3608C130.244 14.2415 130.582 14.0682 130.872 13.8409C131.168 13.608 131.409 13.3267 131.597 12.9972C131.79 12.6619 131.923 12.2841 131.997 11.8636L136.259 11.8892C136.185 12.6619 135.96 13.4233 135.585 14.1733C135.216 14.9233 134.707 15.608 134.06 16.2273C133.412 16.8409 132.622 17.3295 131.69 17.6932C130.764 18.0568 129.702 18.2386 128.503 18.2386C126.923 18.2386 125.509 17.892 124.259 17.1989C123.014 16.5 122.031 15.483 121.31 14.1477C120.588 12.8125 120.227 11.1875 120.227 9.27273C120.227 7.35227 120.594 5.72443 121.327 4.3892C122.06 3.05398 123.051 2.03977 124.301 1.34659C125.551 0.653409 126.952 0.306818 128.503 0.306818C129.56 0.306818 130.537 0.454545 131.435 0.75C132.332 1.03977 133.122 1.46591 133.804 2.02841C134.486 2.58523 135.04 3.26989 135.466 4.08239C135.892 4.89489 136.156 5.82386 136.259 6.86932ZM138.102 3.97159V0.545454H152.854V3.97159H147.562V18H143.403V3.97159H138.102ZM154.915 18V0.545454H167.085V3.97159H159.134V7.55114H166.463V10.9858H159.134V14.5739H167.085V18H154.915ZM169.727 18V0.545454H181.898V3.97159H173.946V7.55114H181.276V10.9858H173.946V14.5739H181.898V18H169.727Z" fill="#F08700"/>
</svg>
