<svg width="121" height="121" viewBox="0 0 121 121" fill="none" xmlns="http://www.w3.org/2000/svg">
<g clip-path="url(#clip0_99_279)">
<path d="M60.5001 122.26C59.7797 122.261 59.0744 122.055 58.4683 121.666C28.7628 102.719 12.5639 70.1195 14.0159 32.2213C14.0755 31.2268 14.5167 30.2937 15.2474 29.6164C15.9782 28.9392 16.9421 28.5702 17.9383 28.5863C18.4346 28.6051 18.9222 28.7215 19.3735 28.9288C19.8247 29.1362 20.2307 29.4303 20.5683 29.7946C20.9058 30.1588 21.1683 30.586 21.3408 31.0516C21.5132 31.5173 21.5923 32.0124 21.5734 32.5087C20.2625 66.7113 34.3691 96.2051 60.3639 113.861C76.0788 102.104 99.9007 82.2296 99.5679 32.4381C99.5646 31.9415 99.6591 31.4492 99.8461 30.9891C100.033 30.5291 100.309 30.1104 100.658 29.7569C101.006 29.4035 101.421 29.1222 101.879 28.9291C102.336 28.736 102.827 28.6349 103.324 28.6316H103.349C104.348 28.6316 105.306 29.0265 106.014 29.7302C106.722 30.4339 107.124 31.3892 107.13 32.3877C107.504 88.3098 78.3879 109.903 62.7486 121.509C62.1014 121.999 61.3116 122.263 60.5001 122.26Z" fill="#3A3A3A"/>
<path d="M103.349 36.2092C102.894 36.2102 102.443 36.1282 102.018 35.9672C72.8571 24.9814 44.9717 24.9663 19.118 35.9118C18.6608 36.1051 18.1701 36.2065 17.6737 36.2101C17.1774 36.2138 16.6852 36.1197 16.2252 35.9331C15.2962 35.5563 14.555 34.8259 14.1646 33.9027C13.7741 32.9794 13.7665 31.9388 14.1432 31.0098C14.52 30.0809 15.2504 29.3397 16.1737 28.9492C43.8675 17.2122 73.6487 17.1971 104.685 28.8938C105.511 29.2079 106.201 29.8013 106.635 30.571C107.069 31.3407 107.219 32.2381 107.061 33.1073C106.902 33.9765 106.444 34.7627 105.766 35.3293C105.088 35.896 104.233 36.2073 103.349 36.2092Z" fill="#3A3A3A"/>
<path d="M17.6459 17.6459C16.7191 17.6446 15.825 17.303 15.1335 16.6859C14.442 16.0689 14.0012 15.2193 13.8949 14.2987C13.7885 13.378 14.024 12.4503 14.5565 11.6918C15.0891 10.9333 15.8817 10.3968 16.7837 10.1843L59.8597 0.100917C60.4304 -0.0302211 61.0234 -0.0302211 61.5941 0.100917L104.226 10.1843C105.163 10.4519 105.961 11.0704 106.453 11.9111C106.946 12.7518 107.095 13.7499 106.871 14.698C106.646 15.646 106.064 16.471 105.247 17.0013C104.43 17.5315 103.439 17.7263 102.482 17.5451L60.7168 7.66846L18.508 17.5451C18.2256 17.6128 17.9362 17.6467 17.6459 17.6459Z" fill="#3A3A3A"/>
</g>
<defs>
<clipPath id="clip0_99_279">
<rect width="121" height="121" fill="white"/>
</clipPath>
</defs>
</svg>
