<svg width="122" height="121" viewBox="0 0 122 121" fill="none" xmlns="http://www.w3.org/2000/svg">
<g clip-path="url(#clip0_99_294)">
<path d="M110.865 46.1817C105.935 29.2165 92.554 15.7653 75.5787 10.8698C66.0248 8.79267 62.7023 2.97458 61.2503 0C59.7983 2.97458 56.1582 8.98929 46.8211 10.8597C38.4371 13.2991 30.808 17.8233 24.6462 24.0098C18.4843 30.1964 13.9907 37.8435 11.5848 46.2371C9.51272 55.7911 3.69968 59.1135 0.725098 60.5706C3.69968 62.0226 9.71943 65.5568 11.5848 74.904C16.4954 91.8642 30.0777 105.204 47.0278 110.13C56.5767 112.207 59.8991 118.025 61.3511 121C62.8031 118.025 66.3323 112.001 75.6745 110.13C92.6044 105.209 105.945 91.7785 110.86 74.8486C112.937 65.2946 118.751 61.9671 121.72 60.5151C118.751 59.0631 112.731 55.534 110.865 46.1817ZM91.1877 29.4131L65.8181 29.4585L65.813 17.5702C75.3552 18.578 84.2867 22.7465 91.1877 29.4131ZM61.2503 37.5604C73.3251 37.5604 83.116 48.4302 83.116 60.5151C83.116 72.6 73.3251 82.396 61.2503 82.396C49.1755 82.396 39.3846 72.6 39.3846 60.5151C39.3846 48.4302 49.1755 37.5604 61.2503 37.5604ZM56.4708 17.5954L56.4758 29.4131H31.3129C38.1602 22.7987 47.0082 18.6424 56.4708 17.5954ZM23.9974 82.3506C20.1217 75.7273 18.0853 68.189 18.0987 60.5151C18.0987 52.5392 20.2616 45.0725 24.0226 38.6595L40.1812 38.6998C34.3984 44.2104 31.0154 51.8939 31.0154 60.5101C31.0154 69.1061 34.595 76.835 40.3476 82.3455L23.9974 82.3506ZM61.2503 103.702C50.446 103.702 38.4519 98.5243 31.2574 91.5667L61.2503 91.5718H91.3491C83.2608 99.353 72.4738 103.7 61.2503 103.702ZM98.5536 82.3506H82.1631C85.116 79.5327 87.4654 76.1441 89.0688 72.3906C90.6721 68.637 91.4959 64.5968 91.4902 60.5151C91.4902 51.8939 87.8854 44.2154 82.1077 38.7049L98.5082 38.7099C102.384 45.324 104.42 52.8542 104.407 60.5202C104.419 68.1863 102.399 75.7187 98.5536 82.3506Z" fill="#3A3A3A"/>
<path d="M61.2504 68.6675C62.3912 68.6669 63.5207 68.4415 64.5743 68.0044C65.628 67.5672 66.5853 66.9268 67.3914 66.1197C68.1976 65.3126 68.8369 64.3546 69.2729 63.3004C69.7088 62.2462 69.9328 61.1165 69.9322 59.9757C69.9315 58.8349 69.7062 57.7055 69.269 56.6518C68.8318 55.5981 68.1914 54.6409 67.3843 53.8347C66.5772 53.0285 65.6192 52.3892 64.565 51.9533C63.5108 51.5173 62.3811 51.2933 61.2403 51.2939C58.9365 51.2953 56.7275 52.2118 55.0993 53.8418C53.4712 55.4719 52.5573 57.6819 52.5586 59.9858C52.5599 62.2897 53.4764 64.4986 55.1065 66.1268C56.7365 67.7549 58.9465 68.6689 61.2504 68.6675Z" fill="#3A3A3A"/>
</g>
<defs>
<clipPath id="clip0_99_294">
<rect width="121" height="121" fill="white" transform="translate(0.720215)"/>
</clipPath>
</defs>
</svg>
