<svg width="92" height="92" viewBox="0 0 92 92" fill="none" xmlns="http://www.w3.org/2000/svg">
<path d="M78.9531 13.0497C76.8973 11.0916 74.1715 10 71.3376 10C68.5037 10 65.7778 11.0916 63.7221 13.0497L55.0289 21.7404C53.4657 23.3277 52.4297 25.3614 52.0631 27.5629C51.6966 29.7644 52.0173 32.0259 52.9814 34.0372L45.2581 41.7903L38.0737 34.5781C36.7776 33.2457 35.1609 32.2716 33.3799 31.7503C31.5989 31.229 29.7141 31.178 27.9077 31.6023C26.1014 32.0267 24.4348 32.9119 23.0691 34.1724C21.7035 35.4328 20.6851 37.0258 20.1126 38.7972L10.5573 67.646C9.92228 69.5504 9.82789 71.5947 10.2847 73.5499C10.7415 75.5052 11.7314 77.2942 13.1437 78.7167C14.1682 79.7761 15.3978 80.6137 16.757 81.1781C18.1161 81.7425 19.5759 82.0215 21.0466 81.9982C22.2686 82.0211 23.4849 81.8258 24.6388 81.4212L53.3765 71.829C55.1411 71.2543 56.728 70.232 57.9836 68.861C59.2392 67.4901 60.121 65.8171 60.5437 64.0038C60.9664 62.1904 60.9156 60.2983 60.3963 58.5105C59.877 56.7226 58.9067 55.0996 57.5794 53.7986L50.395 46.5864L58.1182 38.8333C60.1218 39.8011 62.3745 40.123 64.5676 39.7551C66.7606 39.3871 68.7866 38.3471 70.3677 36.7778L79.0249 28.0511C80.947 26.0263 82.0133 23.3328 81.9999 20.5359C81.9865 17.739 80.8945 15.0559 78.9531 13.0497ZM52.2988 59.0274C52.7263 59.4646 53.0358 60.004 53.1981 60.5946C53.3603 61.1852 53.37 61.8075 53.2262 62.403C53.0825 62.9984 52.7899 63.5472 52.3763 63.9976C51.9626 64.4481 51.4414 64.7853 50.862 64.9775L22.1961 74.786C21.5722 74.9773 20.9082 74.9945 20.2753 74.8357C19.6425 74.6769 19.0646 74.348 18.6038 73.8845C18.1421 73.4219 17.8145 72.8419 17.6563 72.2066C17.4981 71.5712 17.5152 70.9047 17.7058 70.2784L27.297 41.4297C27.4337 40.7929 27.7397 40.2052 28.1825 39.729C28.6252 39.2528 29.1882 38.9059 29.8116 38.7251C30.0862 38.6953 30.3632 38.6953 30.6378 38.7251C31.5802 38.7291 32.4832 39.1047 33.1523 39.7709L40.3368 46.9831L37.2115 50.0843C36.8748 50.4195 36.6076 50.8184 36.4252 51.2578C36.2429 51.6972 36.149 52.1686 36.149 52.6446C36.149 53.1207 36.2429 53.592 36.4252 54.0314C36.6076 54.4709 36.8748 54.8697 37.2115 55.2049C37.5455 55.5429 37.9428 55.8112 38.3805 55.9943C38.8183 56.1774 39.2878 56.2716 39.762 56.2716C40.2362 56.2716 40.7057 56.1774 41.1435 55.9943C41.5812 55.8112 41.9785 55.5429 42.3125 55.2049L45.4018 52.0676L52.2988 59.0274ZM73.8521 23.255L65.1949 31.9457C64.6906 32.4419 64.0518 32.7779 63.3584 32.9117C62.6649 33.0455 61.9475 32.9712 61.2959 32.698C60.6443 32.4248 60.0874 31.9648 59.6947 31.3757C59.302 30.7865 59.091 30.0942 59.0881 29.3853C59.0921 28.4393 59.4662 27.5327 60.1299 26.8611L68.7871 18.1343C69.1211 17.7963 69.5184 17.5281 69.9561 17.345C70.3938 17.1619 70.8634 17.0677 71.3376 17.0677C71.8118 17.0677 72.2813 17.1619 72.7191 17.345C73.1568 17.5281 73.5541 17.7963 73.8881 18.1343C74.2248 18.4696 74.492 18.8684 74.6744 19.3078C74.8567 19.7473 74.9506 20.2186 74.9506 20.6947C74.9506 21.1707 74.8567 21.642 74.6744 22.0815C74.492 22.5209 74.2248 22.9198 73.8881 23.255H73.8521Z" fill="#F08700"/>
</svg>
