<svg width="72" height="72" viewBox="0 0 72 72" fill="none" xmlns="http://www.w3.org/2000/svg">
<g clip-path="url(#clip0_130_110)">
<path d="M61.9425 25.7176C61.943 24.5354 61.6054 23.3777 60.9695 22.381C60.3337 21.3844 59.4261 20.5903 58.3537 20.0926V24.8626L55.6987 26.6851L53.055 24.8626V20.0813C51.9891 20.5849 51.0882 21.3811 50.4573 22.3769C49.8264 23.3728 49.4914 24.5274 49.4914 25.7063C49.4914 26.8852 49.8264 28.0398 50.4573 29.0357C51.0882 30.0316 51.9891 30.8277 53.055 31.3313V49.6576C51.9817 50.1546 51.073 50.9482 50.4361 51.945C49.7992 52.9417 49.4608 54.0998 49.4608 55.2826C49.4608 56.4654 49.7992 57.6235 50.4361 58.6202C51.073 59.6169 51.9817 60.4106 53.055 60.9076V56.1376L55.71 54.3151L58.3537 56.1376V60.9076C59.4197 60.4039 60.3205 59.6078 60.9514 58.612C61.5823 57.6161 61.9173 56.4615 61.9173 55.2826C61.9173 54.1037 61.5823 52.949 60.9514 51.9532C60.3205 50.9573 59.4197 50.1612 58.3537 49.6576V31.3426C59.4227 30.8404 60.3273 30.0453 60.9625 29.0496C61.5977 28.054 61.9375 26.8986 61.9425 25.7176ZM26.9325 20.6663L26.73 16.3688L26.6512 14.6251C26.0951 13.9342 25.7734 13.0841 25.733 12.1981C25.6925 11.3121 25.9353 10.4362 26.4262 9.69757L26.3587 8.06632L26.2012 4.81507L25.4587 4.99507C22.7053 5.93691 20.3156 7.71694 18.6249 10.0855C16.9342 12.4541 16.0273 15.2925 16.0312 18.2026V20.7113H26.9325V20.6663ZM33.21 16.3801L33.0075 20.6663H43.875V18.1576C43.8772 15.2541 42.9748 12.4222 41.2933 10.0552C39.6119 7.68822 37.2348 5.90385 34.4925 4.95007L33.75 4.77007L33.6037 8.01007L33.525 9.65257C34.0152 10.3936 34.2575 11.2711 34.217 12.1586C34.1766 13.0461 33.8555 13.8979 33.3 14.5913L33.21 16.3801ZM27.7087 16.3238L27.9112 20.6663H32.0287L32.2425 16.3351V15.5251C31.5593 15.9798 30.7569 16.2224 29.9362 16.2224C29.1156 16.2224 28.3132 15.9798 27.63 15.5251L27.7087 16.3238ZM27.3487 8.65132C28.0953 8.06186 29.0188 7.74125 29.97 7.74125C30.9212 7.74125 31.8447 8.06186 32.5912 8.65132V7.97632L32.7825 3.47632H27.1237L27.3262 7.97632L27.3487 8.65132Z" fill="#F08700"/>
<path d="M29.97 15.2438C30.618 15.2438 31.2514 15.0515 31.79 14.6913C32.3286 14.331 32.7482 13.8191 32.9956 13.2202C33.2431 12.6214 33.3072 11.9626 33.18 11.3272C33.0528 10.6919 32.7399 10.1086 32.2809 9.65117C31.8219 9.19378 31.2375 8.88287 30.6018 8.75783C29.966 8.63278 29.3074 8.69922 28.7094 8.94873C28.1114 9.19824 27.6009 9.61959 27.2425 10.1594C26.8841 10.6993 26.694 11.3333 26.6963 11.9813C26.6963 12.4107 26.781 12.8358 26.9457 13.2324C27.1103 13.629 27.3517 13.9891 27.6558 14.2922C27.9599 14.5953 28.3209 14.8354 28.7181 14.9987C29.1152 15.162 29.5406 15.2453 29.97 15.2438ZM58.8375 61.9425L57.645 62.4938C57.735 64.0463 57.7125 65.4188 57.645 66.2625H50.3325V60.2888C49.0681 58.9291 48.3683 57.1393 48.375 55.2825C48.3694 55.1814 48.3694 55.08 48.375 54.9788C47.8628 54.7182 47.2959 54.5833 46.7213 54.585H46.125L47.25 48.8925C48.3075 49.4325 49.2975 50.0175 50.1863 50.49C50.6928 49.8942 51.2932 49.385 51.9638 48.9825C47.8355 46.5402 43.4755 44.5128 38.9475 42.93V39.3638C41.6954 35.6176 43.2234 31.1162 43.3238 26.4713H44.82C45.0677 26.4713 45.3052 26.3729 45.4803 26.1978C45.6554 26.0227 45.7538 25.7852 45.7538 25.5375V22.6575C45.7538 22.4088 45.6558 22.1702 45.481 21.9933C45.3062 21.8164 45.0687 21.7155 44.82 21.7125H15.2213C14.9706 21.7125 14.7303 21.8121 14.553 21.9893C14.3758 22.1665 14.2763 22.4069 14.2763 22.6575V25.5375C14.2762 25.6611 14.3008 25.7835 14.3484 25.8975C14.396 26.0115 14.4658 26.115 14.5537 26.2018C14.6416 26.2887 14.7459 26.3572 14.8605 26.4035C14.9751 26.4497 15.0977 26.4728 15.2213 26.4713H16.7175C16.7931 31.0857 18.3073 35.5613 21.0488 39.2738V42.93C16.7738 44.46 3.17251 49.68 1.12501 56.0363C0.129699 59.7707 -0.21284 63.649 0.112507 67.5C0.143096 67.7765 0.274996 68.0318 0.482752 68.2167C0.690508 68.4016 0.959391 68.503 1.23751 68.5013H58.725C59.0031 68.503 59.272 68.4016 59.4798 68.2167C59.6875 68.0318 59.8194 67.7765 59.85 67.5C60.0166 65.4747 60.0166 63.4391 59.85 61.4138C59.5238 61.6109 59.1857 61.7875 58.8375 61.9425ZM18.9563 26.4713H40.995C40.9141 30.6692 39.5302 34.7382 37.035 38.115C36.9454 38.1961 36.8694 38.2911 36.81 38.3963C36.0044 39.4585 34.9728 40.3284 33.7899 40.9432C32.607 41.558 31.3023 41.9023 29.97 41.9513C28.6444 41.903 27.3458 41.5624 26.1672 40.9536C24.9886 40.3449 23.9591 39.4831 23.1525 38.43C23.1 38.3171 23.0232 38.2172 22.9275 38.1375C20.4305 34.7523 19.0432 30.6769 18.9563 26.4713ZM36.72 43.1663L29.97 48.69L23.2763 43.2675V42.0188C25.1764 43.5169 27.5529 44.2798 29.97 44.1675C32.4517 44.1438 34.8441 43.2387 36.72 41.6138V43.1663ZM13.2525 54.585C12.2877 54.588 11.3635 54.9734 10.6824 55.6566C10.0012 56.3399 9.61875 57.2653 9.61876 58.23V66.2625H2.25001C2.06355 63.05 2.39787 59.8284 3.24001 56.7225C4.00501 54.36 7.29001 51.6488 12.7463 48.8475L13.8713 54.54L13.2525 54.585ZM16.38 60.66C16.1575 60.66 15.94 60.5941 15.755 60.4704C15.57 60.3468 15.4258 60.1711 15.3406 59.9656C15.2555 59.76 15.2332 59.5338 15.2766 59.3156C15.32 59.0973 15.4272 58.8969 15.5845 58.7395C15.7418 58.5822 15.9423 58.4751 16.1605 58.4317C16.3788 58.3882 16.605 58.4105 16.8105 58.4957C17.0161 58.5808 17.1918 58.725 17.3154 58.91C17.439 59.095 17.505 59.3125 17.505 59.535C17.505 59.8334 17.3865 60.1196 17.1755 60.3305C16.9645 60.5415 16.6784 60.66 16.38 60.66ZM41.3663 54.585H18.5738L17.7525 46.6088C19.6313 45.8325 21.1275 45.2588 21.9488 44.9775L29.25 50.9738C29.4494 51.1391 29.6998 51.2304 29.9588 51.2325C30.2178 51.2304 30.4681 51.1391 30.6675 50.9738L37.935 45C38.7 45.27 40.2638 45.855 42.1988 46.6538L41.3663 54.585ZM43.6163 60.66C43.3938 60.66 43.1762 60.5941 42.9912 60.4704C42.8062 60.3468 42.662 60.1711 42.5769 59.9656C42.4917 59.76 42.4695 59.5338 42.5129 59.3156C42.5563 59.0973 42.6634 58.8969 42.8208 58.7395C42.9781 58.5822 43.1786 58.4751 43.3968 58.4317C43.615 58.3882 43.8412 58.4105 44.0468 58.4957C44.2523 58.5808 44.4281 58.725 44.5517 58.91C44.6753 59.095 44.7413 59.3125 44.7413 59.535C44.7414 59.6866 44.7109 59.8367 44.6515 59.9762C44.5922 60.1157 44.5053 60.2418 44.396 60.3469C44.2867 60.452 44.1573 60.5339 44.0156 60.5877C43.8739 60.6415 43.7227 60.6661 43.5713 60.66H43.6163ZM71.595 43.7625C71.6492 43.7626 71.7028 43.7517 71.7526 43.7307C71.8025 43.7096 71.8477 43.6788 71.8854 43.64C71.9232 43.6012 71.9528 43.5552 71.9725 43.5047C71.9922 43.4543 72.0015 43.4004 72 43.3463V41.8388C72.0001 41.7303 71.9577 41.6261 71.8821 41.5484C71.8065 41.4706 71.7034 41.4255 71.595 41.4225H69.345V26.7975L70.4025 25.2L69.75 19.9013H66.735L66.15 25.1663L67.2075 26.7638V41.3888H64.9575C64.8491 41.3917 64.7461 41.4369 64.6704 41.5146C64.5948 41.5924 64.5525 41.6966 64.5525 41.805V43.3125C64.551 43.3667 64.5604 43.4205 64.5801 43.471C64.5997 43.5214 64.6293 43.5674 64.6671 43.6062C64.7048 43.645 64.75 43.6759 64.7999 43.6969C64.8498 43.718 64.9034 43.7288 64.9575 43.7288H65.4413C65.4955 44.1762 65.4688 44.6296 65.3625 45.0675H64.9575C64.8501 45.0675 64.7471 45.1102 64.6711 45.1862C64.5952 45.2621 64.5525 45.3651 64.5525 45.4725V60.0975C64.551 60.3668 64.603 60.6338 64.7053 60.8828C64.8077 61.1319 64.9585 61.3582 65.1489 61.5487C65.3393 61.7391 65.5656 61.8899 65.8147 61.9922C66.0638 62.0946 66.3307 62.1465 66.6 62.145H69.975C70.5008 62.1397 71.0043 61.9322 71.3813 61.5657C71.7583 61.1992 71.9798 60.7017 72 60.1763V45.5513C72 45.4439 71.9573 45.3409 71.8814 45.2649C71.8054 45.189 71.7024 45.1463 71.595 45.1463H71.19C71.0782 44.7092 71.0515 44.2547 71.1113 43.8075L71.595 43.7625ZM67.3875 58.95C67.4043 59.0333 67.4023 59.1193 67.3818 59.2017C67.3613 59.2841 67.3227 59.3609 67.2689 59.4266C67.2151 59.4923 67.1473 59.5453 67.0706 59.5816C66.9938 59.618 66.91 59.6368 66.825 59.6368C66.7401 59.6368 66.6562 59.618 66.5794 59.5816C66.5027 59.5453 66.435 59.4923 66.3811 59.4266C66.3273 59.3609 66.2888 59.2841 66.2682 59.2017C66.2477 59.1193 66.2458 59.0333 66.2625 58.95V47.4413C66.2458 47.358 66.2477 47.2721 66.2682 47.1897C66.2888 47.1072 66.3273 47.0304 66.3811 46.9647C66.435 46.899 66.5027 46.846 66.5794 46.8097C66.6562 46.7733 66.7401 46.7545 66.825 46.7545C66.91 46.7545 66.9938 46.7733 67.0706 46.8097C67.1473 46.846 67.2151 46.899 67.2689 46.9647C67.3227 47.0304 67.3613 47.1072 67.3818 47.1897C67.4023 47.2721 67.4043 47.358 67.3875 47.4413V58.95ZM70.2675 58.95C70.2675 59.1022 70.2071 59.2481 70.0995 59.3557C69.9919 59.4633 69.8459 59.5238 69.6938 59.5238C69.6189 59.5238 69.5449 59.5089 69.4759 59.4799C69.4069 59.451 69.3444 59.4085 69.292 59.3551C69.2396 59.3017 69.1984 59.2383 69.1708 59.1688C69.1432 59.0992 69.1298 59.0249 69.1313 58.95V47.4413C69.1298 47.3665 69.1432 47.2921 69.1708 47.2226C69.1984 47.153 69.2396 47.0897 69.292 47.0362C69.3444 46.9828 69.4069 46.9404 69.4759 46.9114C69.5449 46.8824 69.6189 46.8675 69.6938 46.8675C69.8459 46.8675 69.9919 46.928 70.0995 47.0356C70.2071 47.1432 70.2675 47.2891 70.2675 47.4413V58.95Z" fill="#F08700"/>
</g>
<defs>
<clipPath id="clip0_130_110">
<rect width="72" height="72" fill="white"/>
</clipPath>
</defs>
</svg>
