<svg width="62" height="68" viewBox="0 0 62 68" fill="none" xmlns="http://www.w3.org/2000/svg">
<rect width="62" height="67.75" rx="9" fill="#F08700"/>
<path d="M31 8C24.7584 8 23.9735 8.03234 21.5211 8.15525C19.0688 8.28462 17.3984 8.71803 15.935 9.35844C14.4 10.008 13.0097 11.0268 11.8611 12.3438C10.6912 13.6365 9.78568 15.2005 9.2075 16.9269C8.63825 18.5699 8.25012 20.4523 8.138 23.2016C8.02875 25.967 8 26.8467 8 33.8782C8 40.9033 8.02875 41.783 8.138 44.542C8.253 47.2977 8.63825 49.1768 9.2075 50.8231C9.79688 52.5244 10.5818 53.9669 11.8611 55.4062C13.1376 56.8455 14.4199 57.7318 15.9321 58.3916C17.3984 59.032 19.0659 59.4686 21.5154 59.5947C23.9706 59.7177 24.7526 59.75 31 59.75C37.2474 59.75 38.0265 59.7177 40.4818 59.5947C42.9284 59.4654 44.6045 59.032 46.0679 58.3916C47.6019 57.7417 48.9912 56.7229 50.1389 55.4062C51.4182 53.9669 52.2031 52.5244 52.7925 50.8231C53.3589 49.1768 53.747 47.2977 53.862 44.542C53.9712 41.783 54 40.9033 54 33.875C54 26.8467 53.9712 25.967 53.862 23.2048C53.747 20.4523 53.3589 18.5699 52.7925 16.9269C52.2144 15.2004 51.3089 13.6365 50.1389 12.3438C48.9907 11.0263 47.6002 10.0074 46.065 9.35844C44.5987 8.71803 42.9255 8.28139 40.4789 8.15525C38.0236 8.03234 37.2445 8 30.9943 8H31.0029H31ZM28.9386 12.664H31.0029C37.1439 12.664 37.8713 12.6866 40.2949 12.8127C42.5374 12.926 43.7564 13.3497 44.5671 13.7022C45.6395 14.1712 46.4071 14.734 47.2121 15.6396C48.0171 16.5452 48.5145 17.4056 48.9314 18.6152C49.2476 19.5241 49.6214 20.8955 49.722 23.4183C49.8341 26.1448 49.8571 26.9631 49.8571 33.8685C49.8571 40.7739 49.8341 41.5955 49.722 44.322C49.6214 46.8448 49.2448 48.213 48.9314 49.1251C48.5626 50.2486 47.9741 51.2644 47.2092 52.0975C46.4042 53.0031 45.6395 53.5626 44.5643 54.0316C43.7593 54.3874 42.5403 54.8079 40.2949 54.9243C37.8713 55.0472 37.1439 55.0763 31.0029 55.0763C24.8619 55.0763 24.1316 55.0472 21.708 54.9243C19.4655 54.8079 18.2494 54.3874 17.4386 54.0316C16.4396 53.6174 15.5357 52.9565 14.7936 52.0975C14.0282 51.2631 13.4387 50.2463 13.0686 49.1218C12.7552 48.213 12.3786 46.8416 12.278 44.3188C12.1687 41.5922 12.1458 40.7739 12.1458 33.8621C12.1458 26.9534 12.1687 26.1384 12.278 23.4118C12.3815 20.889 12.7553 19.5176 13.0715 18.6055C13.4884 17.3991 13.9886 16.5355 14.7936 15.6299C15.5986 14.7243 16.3634 14.1647 17.4386 13.6957C18.2494 13.34 19.4655 12.9195 21.708 12.803C23.8298 12.6931 24.652 12.6607 28.9386 12.6575V12.664ZM43.2791 16.9592C42.9167 16.9592 42.5578 17.0395 42.2229 17.1956C41.8881 17.3516 41.5838 17.5803 41.3275 17.8687C41.0712 18.157 40.8679 18.4993 40.7292 18.876C40.5905 19.2527 40.5191 19.6565 40.5191 20.0642C40.5191 20.472 40.5905 20.8757 40.7292 21.2524C40.8679 21.6292 41.0712 21.9715 41.3275 22.2598C41.5838 22.5481 41.8881 22.7768 42.2229 22.9329C42.5578 23.0889 42.9167 23.1692 43.2791 23.1692C44.0111 23.1692 44.7131 22.8421 45.2307 22.2598C45.7483 21.6775 46.0391 20.8877 46.0391 20.0642C46.0391 19.2407 45.7483 18.451 45.2307 17.8687C44.7131 17.2864 44.0111 16.9592 43.2791 16.9592ZM31.0029 20.5882C29.4362 20.5607 27.8803 20.8841 26.4258 21.5395C24.9713 22.195 23.6472 23.1694 22.5307 24.4061C21.4141 25.6428 20.5274 27.117 19.9222 28.7429C19.3169 30.3688 19.0052 32.1139 19.0052 33.8766C19.0052 35.6393 19.3169 37.3844 19.9222 39.0103C20.5274 40.6362 21.4141 42.1104 22.5307 43.3471C23.6472 44.5838 24.9713 45.5582 26.4258 46.2137C27.8803 46.8691 29.4362 47.1925 31.0029 47.165C34.1037 47.1106 37.0611 45.6867 39.2368 43.2005C41.4125 40.7144 42.632 37.3654 42.632 33.8766C42.632 30.3878 41.4125 27.0389 39.2368 24.5527C37.0611 22.0666 34.1037 20.6426 31.0029 20.5882ZM31.0029 25.2489C33.0365 25.2489 34.9867 26.1577 36.4247 27.7754C37.8627 29.3931 38.6705 31.5872 38.6705 33.875C38.6705 36.1628 37.8627 38.3569 36.4247 39.9746C34.9867 41.5923 33.0365 42.5011 31.0029 42.5011C28.9693 42.5011 27.019 41.5923 25.581 39.9746C24.1431 38.3569 23.3352 36.1628 23.3352 33.875C23.3352 31.5872 24.1431 29.3931 25.581 27.7754C27.019 26.1577 28.9693 25.2489 31.0029 25.2489Z" fill="white"/>
</svg>
