<svg width="61" height="68" viewBox="0 0 61 68" fill="none" xmlns="http://www.w3.org/2000/svg">
<rect width="61" height="68" rx="9" fill="#F08700"/>
<path d="M17.4439 12.7243C17.4432 13.9766 16.9451 15.1774 16.0592 16.0625C15.1732 16.9476 13.9719 17.4445 12.7196 17.4439C11.4672 17.4432 10.2664 16.9451 9.38135 16.0592C8.49626 15.1732 7.99937 13.9719 8 12.7196C8.00063 11.4672 8.49871 10.2664 9.38469 9.38135C10.2707 8.49626 11.472 7.99937 12.7243 8C13.9766 8.00063 15.1774 8.49871 16.0625 9.38469C16.9476 10.2707 17.4445 11.472 17.4439 12.7243ZM17.5855 20.9405H8.14166V50.4997H17.5855V20.9405ZM32.5068 20.9405H23.1102V50.4997H32.4124V34.9882C32.4124 26.3471 43.6742 25.5443 43.6742 34.9882V50.4997H53V31.7773C53 17.2101 36.3316 17.7531 32.4124 24.9069L32.5068 20.9405Z" fill="white"/>
</svg>
