<svg width="122" height="121" viewBox="0 0 122 121" fill="none" xmlns="http://www.w3.org/2000/svg">
<g clip-path="url(#clip0_99_287)">
<path d="M72.4343 121H49.288C45.653 121 44.1808 119.649 42.9809 117.466L41.4432 114.738C41.118 114.162 40.9501 113.51 40.9563 112.848C40.9625 112.186 41.1426 111.537 41.4785 110.967L58.6302 81.7153L72.8074 60.3538L57.9446 37.7722C57.5566 37.1816 57.3412 36.4946 57.3224 35.7882C57.3037 35.0819 57.4825 34.3844 57.8387 33.7741L73.967 6.34747C74.2988 5.78287 74.7715 5.31412 75.3389 4.98712C75.9063 4.66012 76.5489 4.48609 77.2037 4.48206H77.2289C77.8799 4.48192 78.5199 4.64984 79.087 4.96958C79.654 5.28932 80.1289 5.75004 80.4657 6.30714L109.889 54.9996C109.91 55.0325 109.93 55.0661 109.949 55.1004C113.252 60.9588 110.827 64.8258 101.807 79.2046C96.841 87.1301 89.3239 99.1091 78.8574 117.294C77.3751 119.921 75.5097 121 72.4343 121ZM49.3888 113.438H72.3335C82.9563 95.0153 90.4381 83.0968 95.3941 75.1914C103.456 62.3453 104.323 60.5857 103.38 58.8615L77.2693 15.6544L65.5474 35.5841L80.4959 58.2817C80.905 58.9012 81.1226 59.6273 81.1217 60.3697C81.1208 61.112 80.9014 61.8377 80.4909 62.4562L65.0432 85.7184L49.1015 112.918L49.3888 113.438Z" fill="#3A3A3A"/>
<path d="M44.7355 116.664H44.7052C44.0416 116.661 43.3907 116.481 42.8187 116.145C42.2467 115.809 41.7739 115.327 41.4483 114.748C30.8406 95.9984 23.4092 84.4681 18.4986 76.8401C10.7345 64.7804 8.39009 61.1454 11.7882 55.1055C23.994 35.1909 31.4557 22.5363 35.9125 14.9788C44.438 0.524386 44.7909 -0.110863 49.1469 5.38006e-05C57.5262 0.216845 63.0115 0.0857621 66.6415 5.38006e-05C73.5839 -0.181446 76.7702 -0.241946 79.1751 4.02835L80.5212 6.41305C80.8468 6.99036 81.0149 7.64311 81.0087 8.30588C81.0025 8.96864 80.8222 9.61814 80.4859 10.1893L64.3526 37.6109L49.1318 60.374L64.2064 83.0212C64.5999 83.6112 64.8191 84.3003 64.8387 85.0093C64.8583 85.7182 64.6776 86.4184 64.3173 87.0293L47.9974 114.799C47.6631 115.367 47.1863 115.838 46.6142 116.165C46.0421 116.492 45.3945 116.664 44.7355 116.664ZM49.3284 7.56255C48.315 8.84818 46.0009 12.7656 42.4314 18.8156C37.9595 26.3932 30.4827 39.083 18.3121 58.9371C17.3542 60.6463 17.6466 61.5386 24.8612 72.7412C29.3029 79.6433 35.7815 89.7014 44.7909 105.336L56.6086 85.2345L41.4483 62.4562C41.0339 61.8341 40.8133 61.1031 40.8142 60.3556C40.8151 59.6081 41.0375 58.8776 41.4533 58.2565L57.9547 33.5776L72.868 8.21797L72.5907 7.72893C72.0865 7.42139 69.5354 7.48189 66.823 7.54743C63.1275 7.64322 57.5413 7.77935 49.3284 7.56255Z" fill="#3A3A3A"/>
</g>
<defs>
<clipPath id="clip0_99_287">
<rect width="121" height="121" fill="white" transform="translate(0.288086)"/>
</clipPath>
</defs>
</svg>
