<svg width="122" height="121" viewBox="0 0 122 121" fill="none" xmlns="http://www.w3.org/2000/svg">
<g clip-path="url(#clip0_99_283)">
<path d="M51.8211 115.958C50.8183 115.958 49.8565 115.56 49.1474 114.851C48.4383 114.142 48.0399 113.18 48.0399 112.177V37.1621C48.0296 36.0076 47.5691 34.9027 46.7565 34.0826C45.9439 33.2624 44.8433 32.7918 43.6889 32.7708H3.92529C2.92244 32.7708 1.96067 32.3724 1.25155 31.6633C0.542423 30.9542 0.144043 29.9924 0.144043 28.9896C0.144043 27.9867 0.542423 27.0249 1.25155 26.3158C1.96067 25.6067 2.92244 25.2083 3.92529 25.2083H43.6889C46.8527 25.2177 49.8836 26.4814 52.1169 28.7223C54.3503 30.9632 55.6037 33.9983 55.6024 37.1621V112.177C55.6024 113.18 55.204 114.142 54.4949 114.851C53.7857 115.56 52.824 115.958 51.8211 115.958Z" fill="#3A3A3A"/>
<path d="M36.6961 115.958C35.6933 115.958 34.7315 115.56 34.0224 114.851C33.3133 114.142 32.9149 113.18 32.9149 112.177V50.1847C32.9243 49.8888 32.8744 49.594 32.7681 49.3176C32.6618 49.0413 32.5012 48.789 32.2959 48.5757C32.0906 48.3624 31.8446 48.1923 31.5725 48.0756C31.3004 47.9588 31.0077 47.8977 30.7117 47.8958H3.92529C2.92244 47.8958 1.96067 47.4974 1.25155 46.7883C0.542423 46.0792 0.144043 45.1174 0.144043 44.1146C0.144043 43.1117 0.542423 42.1499 1.25155 41.4408C1.96067 40.7317 2.92244 40.3333 3.92529 40.3333H30.7117C36.0962 40.3333 40.4774 44.7549 40.4774 50.1847V112.177C40.4774 113.18 40.079 114.142 39.3699 114.851C38.6608 115.56 37.699 115.958 36.6961 115.958ZM69.467 115.958C68.4641 115.958 67.5023 115.56 66.7932 114.851C66.0841 114.142 65.6857 113.18 65.6857 112.177V37.1621C65.6844 33.9983 66.9378 30.9632 69.1712 28.7223C71.4045 26.4814 74.4354 25.2177 77.5992 25.2083H117.363C118.366 25.2083 119.327 25.6067 120.037 26.3158C120.746 27.0249 121.144 27.9867 121.144 28.9896C121.144 29.9924 120.746 30.9542 120.037 31.6633C119.327 32.3724 118.366 32.7708 117.363 32.7708H77.5992C76.4444 32.7905 75.3431 33.2607 74.5302 34.0812C73.7173 34.9016 73.2572 36.0072 73.2482 37.1621V112.177C73.2482 113.18 72.8498 114.142 72.1407 114.851C71.4316 115.56 70.4698 115.958 69.467 115.958Z" fill="#3A3A3A"/>
<path d="M84.592 115.958C83.5891 115.958 82.6273 115.56 81.9182 114.851C81.2091 114.142 80.8107 113.18 80.8107 112.177V50.1847C80.8107 44.7549 85.1919 40.3333 90.5764 40.3333H117.363C118.366 40.3333 119.327 40.7317 120.037 41.4408C120.746 42.1499 121.144 43.1117 121.144 44.1146C121.144 45.1174 120.746 46.0792 120.037 46.7883C119.327 47.4974 118.366 47.8958 117.363 47.8958H90.5764C90.2803 47.8977 89.9876 47.9588 89.7155 48.0756C89.4435 48.1923 89.1975 48.3624 88.9922 48.5757C88.7868 48.789 88.6263 49.0413 88.52 49.3176C88.4137 49.594 88.3638 49.8888 88.3732 50.1847V112.177C88.3732 113.18 87.9748 114.142 87.2657 114.851C86.5566 115.56 85.5948 115.958 84.592 115.958ZM117.363 17.6458H3.92529C2.92244 17.6458 1.96067 17.2474 1.25155 16.5383C0.542423 15.8292 0.144043 14.8674 0.144043 13.8646C0.144043 12.8617 0.542423 11.8999 1.25155 11.1908C1.96067 10.4817 2.92244 10.0833 3.92529 10.0833H117.363C118.366 10.0833 119.327 10.4817 120.037 11.1908C120.746 11.8999 121.144 12.8617 121.144 13.8646C121.144 14.8674 120.746 15.8292 120.037 16.5383C119.327 17.2474 118.366 17.6458 117.363 17.6458Z" fill="#3A3A3A"/>
</g>
<defs>
<clipPath id="clip0_99_283">
<rect width="121" height="121" fill="white" transform="translate(0.144043)"/>
</clipPath>
</defs>
</svg>
