<svg width="68" height="68" viewBox="0 0 68 68" fill="none" xmlns="http://www.w3.org/2000/svg">
<rect width="68" height="68" rx="9" fill="#F08700"/>
<path d="M25.094 53.5014C43.208 53.5014 53.114 38.4954 53.114 25.4814C53.114 25.3851 53.114 25.2888 53.1137 25.1926C53.1116 24.5805 53.3909 23.9962 53.8686 23.6135C54.8156 22.8549 55.6909 22.0124 56.4842 21.0969C56.9597 20.5482 56.3508 19.7681 55.6551 19.9759C54.9064 20.1995 54.4004 19.0659 54.8969 18.4624C55.1415 18.1651 55.3687 17.8535 55.5773 17.5292C56.0616 16.7762 55.2068 16.0239 54.384 16.377C53.4675 16.7703 52.5219 17.0939 51.5552 17.3446C50.8538 17.5264 50.1291 17.2698 49.574 16.8041C48.2229 15.6709 46.5865 14.916 44.8323 14.6287C42.6933 14.2783 40.4985 14.6427 38.5875 15.6654C36.6764 16.6881 35.1557 18.3121 34.2607 20.2861C32.9269 23.2276 30.3971 26.4216 27.2936 25.5273C25.608 25.0415 23.9673 24.3969 22.3941 23.5995C21.1161 22.9517 19.8932 22.2083 18.735 21.3773C15.8179 19.284 11.4507 19.9767 12.2622 23.4743C12.5893 24.8842 13.2195 26.1915 14.0949 27.3127C14.6528 28.0272 14.1664 29.162 13.3154 28.8498C12.8749 28.6882 12.4454 28.4946 12.0304 28.2701C11.9808 28.2432 11.92 28.279 11.92 28.3354C11.9206 30.609 12.7076 32.8125 14.1475 34.572C14.9042 35.4967 15.8167 36.269 16.8358 36.859C17.5289 37.2602 17.447 38.3655 16.6476 38.3176C16.0713 38.2831 15.5984 38.8277 15.8449 39.3498C16.5337 40.8082 17.5729 42.0818 18.8778 43.0519C20.5231 44.2752 21.1817 47.2626 19.2603 47.9779C18.7461 48.1694 18.2232 48.3396 17.6931 48.488C15.8722 48.9978 15.2205 51.7696 17.0313 52.3142C19.6333 53.0967 22.349 53.4987 25.094 53.4954" fill="white"/>
</svg>
